<svg xmlns="http://www.w3.org/2000/svg" width="4216" height="1464" viewBox="0 0 4216 1464"><style>.wire{fill:none;stroke-linecap:round;stroke-linejoin:round;}.module-name{font-family:MiSans VF,Noto Sans SC,Trebuchet MS,Lucida Sans Unicode,Lucida Grande,sans-serif;font-size:16px;font-weight:700;fill:#1d262b;}.module-type{font-family:MiSans VF,Noto Sans SC,Trebuchet MS,Lucida Sans Unicode,Lucida Grande,sans-serif;font-size:11px;letter-spacing:0.16em;text-transform:uppercase;fill:#6b6f6f;}.port-label{font-family:Maple Mono Normal NF CN,Maple Mono NF CN,Consolas,Courier New,monospace;font-size:14px;fill:#1d262b;}.wire-label{font-family:Maple Mono Normal NF CN,Maple Mono NF CN,Consolas,Courier New,monospace;font-size:11px;}</style><g transform="translate(485 261) scale(1)"><path class="wire" d="M -201.5 80 L -88 80 L -88 80 L -98.5 80" stroke="#263238" stroke-width="2.5"></path><path class="wire" d="M -201.5 110 L -160 110 L -160 160 L -98.5 160" stroke="#263238" stroke-width="2.5"></path><path class="wire" d="M -201.5 420 L -130 420 L -130 240 L -98.5 240" stroke="#ff0000" stroke-width="8"></path><path class="wire" d="M 552.5 726 L 643 726 L 643 288 L 773.5 288" stroke="#263238" stroke-width="2.5"></path><path class="wire" d="M 552.5 726 L 643 726 L 643 664 L 694.5 664" stroke="#263238" stroke-width="2.5"></path><path class="wire" d="M 148.5 160 L 186 160 L 186 616 L 694.5 616" stroke="#263238" stroke-width="2.5"></path><path class="wire" d="M 148.5 240 L 250 240 L 250 61 L 351.5 61" stroke="#ff0000" stroke-width="8"></path><text class="wire-label" x="341.5" y="48.25" text-anchor="end" dominant-baseline="central" fill="#ff0000">[31:0]</text><path class="wire" d="M 455.5 732 L 250 732 L 250 240 L 148.5 240" stroke="#ff0000" stroke-width="3"></path><path class="wire" d="M 148.5 240 L 250 240 L 250 350 L 351.5 350" stroke="#ff0000" stroke-width="3"></path><text class="wire-label" x="341.5" y="339.75" text-anchor="end" dominant-baseline="central" fill="#ff0000">[24:20]</text><path class="wire" d="M 548.5 350 L 575 350 L 575 160 L 773.5 160" stroke="#263238" stroke-width="2.5"></path><path class="wire" d="M 548.5 410 L 596 410 L 596 200 L 773.5 200" stroke="#263238" stroke-width="2.5"></path><path class="wire" d="M 148.5 80 L 182 80 L 182 -21 L 576 -21 L 576 80 L 773.5 80" stroke="#263238" stroke-width="2.5"></path><path class="wire" d="M 751.5 640 L 804 640 L 804 640 L 773.5 640" stroke="#263238" stroke-width="2.5"></path><path class="wire" d="M 548.5 141 L 700 141 L 700 120 L 773.5 120" stroke="#00aaff" stroke-width="5"></path><path class="wire" d="M 773.5 480 L 700 480 L 700 141 L 548.5 141" stroke="#00aaff" stroke-width="2.5"></path><path class="wire" d="M 773.5 560 L 250 560 L 250 240 L 148.5 240" stroke="#ff0000" stroke-width="3"></path><path class="wire" d="M 1020.5 120 L 1221 120 L 1221 187.72755888325764 L 1219.85 187.72755888325764" stroke="#00aaff" stroke-width="2.5"></path><path class="wire" d="M 1020.5 120 L 1301 120 L 1301 -101.5 L 1299 -101.5" stroke="#00aaff" stroke-width="2.5"></path><path class="wire" d="M 1020.5 160 L 1273 160 L 1273 313.5 L 1285.5 313.5" stroke="#263238" stroke-width="2.5"></path><path class="wire" d="M 1245.5 258 L 1263 258 L 1263 354 L 1285.5 354" stroke="#263238" stroke-width="2.5"></path><path class="wire" d="M 1020.5 200 L 1162 200 L 1162 228 L 1188.5 228" stroke="#263238" stroke-width="2.5"></path><path class="wire" d="M 1020.5 288 L 1086 288 L 1086 288 L 1188.5 288" stroke="#263238" stroke-width="2.5"></path><path class="wire" d="M 1020.5 560 L 1042 560 L 1042 606 L 1714 606 L 1714 560 L 1806.5 560" stroke="#263238" stroke-width="2.5"></path><path class="wire" d="M 1020.5 120 L 1450 120 L 1450 120 L 1806.5 120" stroke="#00aaff" stroke-width="5"></path><path class="wire" d="M 1369 292.5 L 1370 292.5 L 1370 120 L 1020.5 120" stroke="#00aaff" stroke-width="2.5"></path><path class="wire" d="M 1299 -198.5 L 1299 -213 L 621 -213 L 621 585 L 470 585 L 470 528.5" stroke="#263238" stroke-width="2.5"></path><path class="wire" d="M 1020.5 120 L 1020.5 121 L 1519.85 121 L 1519.85 384.72755888325764" stroke="#00aaff" stroke-width="2.5"></path><text class="wire-label" x="1529.85" y="374.72755888325764" text-anchor="end" dominant-baseline="central" fill="#00aaff" transform="rotate(90 1529.85 374.72755888325764)">[2:0]</text><path class="wire" d="M 1452.5 336 L 1470 336 L 1470 410 L 1488.5 410" stroke="#ffdd00" stroke-width="2.5"></path><path class="wire" d="M 1452.5 336 L 1470 336 L 1470 336 L 1806.5 336" stroke="#ffdd00" stroke-width="2.5"></path><path class="wire" d="M 1020.5 80 L 1108 80 L 1108 455 L 1488.5 455" stroke="#263238" stroke-width="2.5"></path><path class="wire" d="M 1020.5 288 L 1086 288 L 1086 500 L 1488.5 500" stroke="#263238" stroke-width="2.5"></path><path class="wire" d="M 1452.5 336 L 1470 336 L 1470 244 L 1574.5 244" stroke="#ffdd00" stroke-width="2.5"></path><path class="wire" d="M 1020.5 160 L 1134 160 L 1134 -170 L 1200.5 -170" stroke="#263238" stroke-width="2.5"></path><path class="wire" d="M 1020.5 200 L 1162 200 L 1162 -130 L 1200.5 -130" stroke="#263238" stroke-width="2.5"></path><path class="wire" d="M 1574.5 214 L 1544 214 L 1544 120 L 1020.5 120" stroke="#00aaff" stroke-width="5"></path><path class="wire" d="M 1721.5 274 L 1754 274 L 1754 -65 L -427 -65 L -427 170 L -348.5 170" stroke="#263238" stroke-width="2.5"></path><path class="wire" d="M 1721.5 214 L 1737 214 L 1737 -45 L -410 -45 L -410 148 L -348.5 147.5" stroke="#263238" stroke-width="2.5"></path><path class="wire" d="M -201.5 110 L -160 110 L -160 384 L -414 384 L -414 474 L -348.5 474" stroke="#263238" stroke-width="2.5"></path><text class="wire-label" x="-358.5" y="464" text-anchor="end" dominant-baseline="central" fill="#263238">[15:2]</text><path class="wire" d="M 1721.5 274 L 1754 274 L 1754 954.5 L 1754 954.5" stroke="#263238" stroke-width="2.5"></path><path class="wire" d="M 1020.5 200 L 1162 200 L 1162 81 L 1790 81 L 1790 240 L 1806.5 240" stroke="#263238" stroke-width="2.5"></path><path class="wire" d="M 1020.5 480 L 1066 480 L 1066 574 L 1692 574 L 1692 480 L 1806.5 480" stroke="#263238" stroke-width="2.5"></path><path class="wire" d="M 1545.5 455 L 1663 455 L 1663 640 L 1806.5 640" stroke="#263238" stroke-width="2.5"></path><path class="wire" d="M 2918.5 480 L 3032 480 L 3032 1139 L 430 1139 L 430 549 L 430 528.5" stroke="#263238" stroke-width="2.5"></path><path class="wire" d="M 1202.5 989 L -453 989 L -453 80 L -348.5 80" stroke="#263238" stroke-width="2.5"></path><path class="wire" d="M 1281 954.5 L 1281 920 L -25 920 L -25 798.5" stroke="#263238" stroke-width="2.5"></path><path class="wire" d="M 1401 954.5 L 1401 880 L 75 880 L 75 798.5" stroke="#263238" stroke-width="2.5"></path><path class="wire" d="M 1521 954.5 L 1521 860 L 847 860 L 847 798.5" stroke="#263238" stroke-width="2.5"></path><path class="wire" d="M 1641 954.5 L 1641 840 L 947 840 L 947 798.5" stroke="#00dba4" stroke-width="5"></path><path class="wire" d="M 1020.5 480 L 1066 480 L 1066 1025 L 1202.5 1025" stroke="#263238" stroke-width="2.5"></path><path class="wire" d="M 1020.5 560 L 1042 560 L 1042 1049 L 1202.5 1049" stroke="#263238" stroke-width="2.5"></path><path class="wire" d="M 1574.5 293.5 L 1561 293.5 L 1561 640 L 1020.5 640" stroke="#263238" stroke-width="2.5"></path><path class="wire" d="M 2053.5 640 L 2081 640 L 2081 911 L 1971 911 L 1971 923 L 1971 954.5" stroke="#263238" stroke-width="2.5"></path><path class="wire" d="M 2053.5 560 L 2116 560 L 2116 931 L 2061 931 L 2061 945 L 2061 954.5" stroke="#263238" stroke-width="2.5"></path><path class="wire" d="M 2199.5 1049 L 3032 1049 L 3032 480 L 2918.5 480" stroke="#263238" stroke-width="2.5"></path><path class="wire" d="M 2199.5 1025 L 2995 1025 L 2995 560 L 2918.5 560" stroke="#263238" stroke-width="2.5"></path><path class="wire" d="M 2436 378.5 L 2436 435 L 2436 435 L 2436 491.5" stroke="#263238" stroke-width="2.5"></path><text class="wire-label" x="2446" y="481.5" text-anchor="end" dominant-baseline="central" fill="#263238" transform="rotate(90 2446 481.5)">[3:0]</text><path class="wire" d="M 2316 378.5 L 2316 435 L 2316 435 L 2316 491.5" stroke="#00abb8" stroke-width="2.5"></path><text class="wire-label" x="2326" y="481.5" text-anchor="end" dominant-baseline="central" fill="#00abb8" transform="rotate(90 2326 481.5)">[31:0]</text><path class="wire" d="M 2053.5 120 L 2426 120 L 2426 120 L 2671.5 120" stroke="#00aaff" stroke-width="5"></path><path class="wire" d="M 2316 181.5 L 2316 120 L 2053.5 120 L 2053.5 120" stroke="#00aaff" stroke-width="2.5"></path><path class="wire" d="M 2436 181.5 L 2436 120 L 2053.5 120 L 2053.5 120" stroke="#00aaff" stroke-width="2.5"></path><text class="wire-label" x="2446" y="171.5" text-anchor="end" dominant-baseline="central" fill="#00aaff" transform="rotate(90 2446 171.5)">[3:0]</text><path class="wire" d="M 2053.5 304 L 2168 304 L 2168 320 L 2227.5 320" stroke="#ffdd00" stroke-width="2.5"></path><text class="wire-label" x="2217.5" y="310" text-anchor="end" dominant-baseline="central" fill="#ffdd00">[11:0]</text><path class="wire" d="M 2053.5 240 L 2151 240 L 2151 240 L 2227.5 240" stroke="#263238" stroke-width="2.5"></path><path class="wire" d="M 2053.5 480 L 2152 480 L 2152 840 L 2604 840 L 2604 480 L 2671.5 480" stroke="#263238" stroke-width="2.5"></path><path class="wire" d="M 2053.5 640 L 2081 640 L 2081 911 L 2653 911 L 2653 640 L 2671.5 640" stroke="#263238" stroke-width="2.5"></path><path class="wire" d="M 2053.5 560 L 2116 560 L 2116 876 L 2629 876 L 2629 560 L 2671.5 560" stroke="#263238" stroke-width="2.5"></path><path class="wire" d="M 1699 -101.5 L 1699 -85 L 1774 -85 L 1774 833 L 1871 833 L 1871 954.5" stroke="#ff5cbb" stroke-width="5"></path><path class="wire" d="M 2918.5 640 L 3225 640 L 3225 640 L 3359.5 640" stroke="#263238" stroke-width="2.5"></path><path class="wire" d="M 2918.5 336 L 2953 336 L 2953 320 L 2997.5 320" stroke="#ffdd00" stroke-width="2.5"></path><text class="wire-label" x="2987.5" y="310" text-anchor="end" dominant-baseline="central" fill="#ffdd00">[11:0]</text><path class="wire" d="M 2524.5 590 L 2573 590 L 2573 -26 L 2950 -26 L 2950 240 L 2997.5 240" stroke="#263238" stroke-width="2.5"></path><path class="wire" d="M 2918.5 120 L 2918.5 120 L 3146 120 L 3146 181.5" stroke="#00aaff" stroke-width="2.5"></path><text class="wire-label" x="3156" y="171.5" text-anchor="end" dominant-baseline="central" fill="#00aaff" transform="rotate(90 3156 171.5)">[3:0]</text><path class="wire" d="M 2918.5 120 L 2918.5 120 L 3390.85 120 L 3390.85 533.7275588832576" stroke="#00aaff" stroke-width="2.5"></path><text class="wire-label" x="3400.85" y="523.7275588832576" text-anchor="end" dominant-baseline="central" fill="#00aaff" transform="rotate(90 3400.85 523.7275588832576)">[2:0]</text><path class="wire" d="M 3294.5 280 L 3332 280 L 3332 568 L 3359.5 568" stroke="#00abb8" stroke-width="2.5"></path><path class="wire" d="M 3416.5 604 L 3458 604 L 3458 1171 L 276 1171 L 276 410 L 351.5 410" stroke="#263238" stroke-width="2.5"></path><path class="wire" d="M 2197.5 -150 L 2230 -150 L 2230 -229 L 219 -229 L 219 470 L 351.5 470" stroke="#8000ff" stroke-width="4"></path><path class="wire" d="M 3635.5 728 L 3699 728 L 3699 1001 L 2199.5 1001" stroke="#00dba4" stroke-width="4"></path><text class="wire-label" x="2209.5" y="990.25" text-anchor="start" dominant-baseline="central" fill="#00dba4">[31:0]</text><path class="wire" d="M 2197.5 -150 L 3548 -150 L 3548 683 L 3578.5 683" stroke="#8000ff" stroke-width="4"></path><path class="wire" d="M 3294.5 280 L 3529 280 L 3529 728 L 3578.5 728" stroke="#00abb8" stroke-width="2.5"></path><path class="wire" d="M 2918.5 640 L 3249 640 L 3249 773 L 3578.5 773" stroke="#263238" stroke-width="2.5"></path><path class="wire" d="M 2918.5 120 L 2918.5 120 L 3609.85 120 L 3609.85 657.7275588832576" stroke="#00aaff" stroke-width="2.5"></path><text class="wire-label" x="3619.85" y="647.7275588832576" text-anchor="end" dominant-baseline="central" fill="#00aaff" transform="rotate(90 3619.85 647.7275588832576)">[2:0]</text><path class="wire" d="M 548.5 350 L 575 350 L 575 1096 L 1302 1096 L 1302 1047 L 1301 1071.5" stroke="#263238" stroke-width="2.5"></path><path class="wire" d="M 548.5 410 L 596 410 L 596 1118 L 1401 1118 L 1401 1062 L 1401 1071.5" stroke="#263238" stroke-width="2.5"></path><path class="wire" d="M 148.5 240 L 250 240 L 250 290 L 351.5 290" stroke="#ff0000" stroke-width="3"></path><text class="wire-label" x="341.5" y="279.75" text-anchor="end" dominant-baseline="central" fill="#ff0000">[19:15]</text><path class="wire" d="M 2053.5 304 L 2168 304 L 2168 590 L 2227.5 590" stroke="#ffdd00" stroke-width="2.5"></path><text class="wire-label" x="2217.5" y="580" text-anchor="end" dominant-baseline="central" fill="#ffdd00">[17:2]</text><path class="wire" d="M 2053.5 304 L 2168 304 L 2168 90 L 2605 90 L 2605 304 L 2671.5 304" stroke="#ffdd00" stroke-width="2.5"></path><path class="wire" d="M 2053.5 480 L 2152 480 L 2152 954.5 L 2151 954.5" stroke="#263238" stroke-width="2.5"></path><g transform="translate(-100 0)"><defs><linearGradient id="moduleGradient-pr-if-id" x1="0%" y1="0%" x2="70%" y2="100%"><stop offset="0%" stop-color="rgba(214, 233, 232, 0.95)"/><stop offset="100%" stop-color="rgba(235, 244, 243, 0.92)"/></linearGradient></defs><rect x="1.5" y="1.5" width="247" height="797" rx="12.5" ry="12.5" fill="url(#moduleGradient-pr-if-id)" stroke="#00756d" stroke-width="3"></rect><text class="module-name" x="125" y="400" text-anchor="middle" dominant-baseline="middle" font-size="32">PR_IF_ID</text><path d="M 115 1.5 L 137 1.5 L 126 11.5 Z" fill="none" stroke="rgb(0, 59, 55)" stroke-width="3" stroke-linejoin="round"></path><circle cx="1.5" cy="80" r="6" fill="rgb(0, 59, 55)"></circle><text class="port-label" x="10" y="80.5" text-anchor="start" dominant-baseline="middle">pc4_if_i</text><circle cx="248.5" cy="80" r="6" fill="rgb(0, 59, 55)"></circle><text class="port-label" x="241" y="80.5" text-anchor="end" dominant-baseline="middle">pc4_id_o</text><circle cx="1.5" cy="160" r="6" fill="rgb(0, 59, 55)"></circle><text class="port-label" x="10" y="160.5" text-anchor="start" dominant-baseline="middle">pc_if_i</text><circle cx="248.5" cy="160" r="6" fill="rgb(0, 59, 55)"></circle><text class="port-label" x="241" y="160.5" text-anchor="end" dominant-baseline="middle">pc_id_o</text><circle cx="1.5" cy="240" r="6" fill="rgb(0, 59, 55)"></circle><text class="port-label" x="10" y="240.5" text-anchor="start" dominant-baseline="middle">instr_if_i</text><circle cx="248.5" cy="240" r="6" fill="rgb(0, 59, 55)"></circle><text class="port-label" x="241" y="240.5" text-anchor="end" dominant-baseline="middle">instr_id_o</text><circle cx="75" cy="798.5" r="6" fill="rgb(0, 59, 55)"></circle><text class="port-label" x="75.5" y="784" text-anchor="middle" dominant-baseline="middle">flush</text><circle cx="175" cy="798.5" r="6" fill="rgb(0, 59, 55)"></circle><text class="port-label" x="175.5" y="784" text-anchor="middle" dominant-baseline="middle">stall</text></g><g transform="translate(772 0)"><defs><linearGradient id="moduleGradient-pr-id-ex" x1="0%" y1="0%" x2="70%" y2="100%"><stop offset="0%" stop-color="rgba(214, 233, 232, 0.95)"/><stop offset="100%" stop-color="rgba(235, 244, 243, 0.92)"/></linearGradient></defs><rect x="1.5" y="1.5" width="247" height="797" rx="12.5" ry="12.5" fill="url(#moduleGradient-pr-id-ex)" stroke="#00756d" stroke-width="3"></rect><text class="module-name" x="125" y="400" text-anchor="middle" dominant-baseline="middle" font-size="32">PR_ID_EX</text><path d="M 115 1.5 L 137 1.5 L 126 11.5 Z" fill="none" stroke="rgb(0, 59, 55)" stroke-width="3" stroke-linejoin="round"></path><circle cx="1.5" cy="80" r="6" fill="rgb(0, 59, 55)"></circle><text class="port-label" x="10" y="80.5" text-anchor="start" dominant-baseline="middle">pc4_id_i</text><circle cx="248.5" cy="80" r="6" fill="rgb(0, 59, 55)"></circle><text class="port-label" x="241" y="80.5" text-anchor="end" dominant-baseline="middle">pc4_ex_o</text><circle cx="1.5" cy="160" r="6" fill="rgb(0, 59, 55)"></circle><text class="port-label" x="10" y="160.5" text-anchor="start" dominant-baseline="middle">rD1_i</text><circle cx="248.5" cy="160" r="6" fill="rgb(0, 59, 55)"></circle><text class="port-label" x="241" y="160.5" text-anchor="end" dominant-baseline="middle">rD1_o</text><circle cx="1.5" cy="200" r="6" fill="rgb(0, 59, 55)"></circle><text class="port-label" x="10" y="200.5" text-anchor="start" dominant-baseline="middle">rD2_i</text><circle cx="248.5" cy="200" r="6" fill="rgb(0, 59, 55)"></circle><text class="port-label" x="241" y="200.5" text-anchor="end" dominant-baseline="middle">rD2_o</text><circle cx="1.5" cy="288" r="6" fill="rgb(0, 59, 55)"></circle><text class="port-label" x="10" y="288.5" text-anchor="start" dominant-baseline="middle">imm_id_i</text><circle cx="248.5" cy="288" r="6" fill="rgb(0, 59, 55)"></circle><text class="port-label" x="241" y="288.5" text-anchor="end" dominant-baseline="middle">imm_ex_o</text><circle cx="1.5" cy="480" r="6" fill="rgb(0, 59, 55)"></circle><text class="port-label" x="10" y="480.5" text-anchor="start" dominant-baseline="middle">rf_we_id_i</text><circle cx="248.5" cy="480" r="6" fill="rgb(0, 59, 55)"></circle><text class="port-label" x="241" y="480.5" text-anchor="end" dominant-baseline="middle">rf_we_ex_o</text><circle cx="1.5" cy="560" r="6" fill="rgb(0, 59, 55)"></circle><text class="port-label" x="10" y="560.5" text-anchor="start" dominant-baseline="middle">wr_id_i</text><circle cx="248.5" cy="560" r="6" fill="rgb(0, 59, 55)"></circle><text class="port-label" x="241" y="560.5" text-anchor="end" dominant-baseline="middle">wr_ex_o</text><circle cx="1.5" cy="120" r="6" fill="rgb(0, 59, 55)"></circle><text class="port-label" x="10" y="120.5" text-anchor="start" dominant-baseline="middle">Control</text><circle cx="248.5" cy="120" r="6" fill="rgb(0, 59, 55)"></circle><text class="port-label" x="241" y="120.5" text-anchor="end" dominant-baseline="middle">Control</text><circle cx="75" cy="798.5" r="6" fill="rgb(0, 59, 55)"></circle><text class="port-label" x="75.5" y="784" text-anchor="middle" dominant-baseline="middle">flush</text><circle cx="175" cy="798.5" r="6" fill="rgb(0, 59, 55)"></circle><text class="port-label" x="175.5" y="784" text-anchor="middle" dominant-baseline="middle">fwd_in</text><circle cx="1.5" cy="640" r="6" fill="rgb(0, 59, 55)"></circle><text class="port-label" x="10" y="640.5" text-anchor="start" dominant-baseline="middle">pc_jump_id_i</text><circle cx="248.5" cy="640" r="6" fill="rgb(0, 59, 55)"></circle><text class="port-label" x="241" y="640.5" text-anchor="end" dominant-baseline="middle">pc_jump_ex_o</text></g><g transform="translate(1805 0)"><defs><linearGradient id="moduleGradient-pr-ex-mem" x1="0%" y1="0%" x2="70%" y2="100%"><stop offset="0%" stop-color="rgba(214, 233, 232, 0.95)"/><stop offset="100%" stop-color="rgba(235, 244, 243, 0.92)"/></linearGradient></defs><rect x="1.5" y="1.5" width="247" height="797" rx="12.5" ry="12.5" fill="url(#moduleGradient-pr-ex-mem)" stroke="#00756d" stroke-width="3"></rect><text class="module-name" x="125" y="400" text-anchor="middle" dominant-baseline="middle" font-size="32">PR_EX_MEM</text><path d="M 115 1.5 L 137 1.5 L 126 11.5 Z" fill="none" stroke="rgb(0, 59, 55)" stroke-width="3" stroke-linejoin="round"></path><circle cx="1.5" cy="480" r="6" fill="rgb(0, 59, 55)"></circle><text class="port-label" x="10" y="480.5" text-anchor="start" dominant-baseline="middle">rf_we_ex_i</text><circle cx="248.5" cy="480" r="6" fill="rgb(0, 59, 55)"></circle><text class="port-label" x="241" y="480.5" text-anchor="end" dominant-baseline="middle">rf_we_mem_o</text><circle cx="1.5" cy="560" r="6" fill="rgb(0, 59, 55)"></circle><text class="port-label" x="10" y="560.5" text-anchor="start" dominant-baseline="middle">wr_ex_i</text><circle cx="248.5" cy="560" r="6" fill="rgb(0, 59, 55)"></circle><text class="port-label" x="241" y="560.5" text-anchor="end" dominant-baseline="middle">wr_mem_o</text><circle cx="1.5" cy="336" r="6" fill="rgb(0, 59, 55)"></circle><text class="port-label" x="10" y="336.5" text-anchor="start" dominant-baseline="middle">alu_result_ex_i</text><circle cx="248.5" cy="304" r="6" fill="rgb(0, 59, 55)"></circle><text class="port-label" x="241" y="304.5" text-anchor="end" dominant-baseline="middle">alu_result_mem_o</text><circle cx="1.5" cy="240" r="6" fill="rgb(0, 59, 55)"></circle><text class="port-label" x="10" y="240.5" text-anchor="start" dominant-baseline="middle">rD2_ex_i</text><circle cx="248.5" cy="240" r="6" fill="rgb(0, 59, 55)"></circle><text class="port-label" x="241" y="240.5" text-anchor="end" dominant-baseline="middle">rD2_mem_o</text><circle cx="1.5" cy="120" r="6" fill="rgb(0, 59, 55)"></circle><text class="port-label" x="10" y="120.5" text-anchor="start" dominant-baseline="middle">Control</text><circle cx="248.5" cy="120" r="6" fill="rgb(0, 59, 55)"></circle><text class="port-label" x="241" y="120.5" text-anchor="end" dominant-baseline="middle">Control</text><circle cx="1.5" cy="640" r="6" fill="rgb(0, 59, 55)"></circle><text class="port-label" x="10" y="640.5" text-anchor="start" dominant-baseline="middle">rf_wd_EX</text><circle cx="248.5" cy="640" r="6" fill="rgb(0, 59, 55)"></circle><text class="port-label" x="241" y="640.5" text-anchor="end" dominant-baseline="middle">rf_wd_MEM</text></g><g transform="translate(2670 0)"><defs><linearGradient id="moduleGradient-pr-mem-wb" x1="0%" y1="0%" x2="70%" y2="100%"><stop offset="0%" stop-color="rgba(214, 233, 232, 0.95)"/><stop offset="100%" stop-color="rgba(235, 244, 243, 0.92)"/></linearGradient></defs><rect x="1.5" y="1.5" width="247" height="797" rx="12.5" ry="12.5" fill="url(#moduleGradient-pr-mem-wb)" stroke="#00756d" stroke-width="3"></rect><text class="module-name" x="125" y="400" text-anchor="middle" dominant-baseline="middle" font-size="32">PR_MEM_WB</text><path d="M 115 1.5 L 137 1.5 L 126 11.5 Z" fill="none" stroke="rgb(0, 59, 55)" stroke-width="3" stroke-linejoin="round"></path><circle cx="1.5" cy="480" r="6" fill="rgb(0, 59, 55)"></circle><text class="port-label" x="10" y="480.5" text-anchor="start" dominant-baseline="middle">rf_we_mem_i</text><circle cx="248.5" cy="480" r="6" fill="rgb(0, 59, 55)"></circle><text class="port-label" x="241" y="480.5" text-anchor="end" dominant-baseline="middle">rf_we_wb_o</text><circle cx="1.5" cy="560" r="6" fill="rgb(0, 59, 55)"></circle><text class="port-label" x="10" y="560.5" text-anchor="start" dominant-baseline="middle">wr_mem_i</text><circle cx="248.5" cy="560" r="6" fill="rgb(0, 59, 55)"></circle><text class="port-label" x="241" y="560.5" text-anchor="end" dominant-baseline="middle">wr_wb_o</text><circle cx="1.5" cy="304" r="6" fill="rgb(0, 59, 55)"></circle><text class="port-label" x="10" y="304.5" text-anchor="start" dominant-baseline="middle">alu_result_mem_i</text><circle cx="248.5" cy="336" r="6" fill="rgb(0, 59, 55)"></circle><text class="port-label" x="241" y="336.5" text-anchor="end" dominant-baseline="middle">alu_result_wb_o</text><circle cx="1.5" cy="120" r="6" fill="rgb(0, 59, 55)"></circle><text class="port-label" x="10" y="120.5" text-anchor="start" dominant-baseline="middle">Control</text><circle cx="248.5" cy="120" r="6" fill="rgb(0, 59, 55)"></circle><text class="port-label" x="241" y="120.5" text-anchor="end" dominant-baseline="middle">Control</text><circle cx="1.5" cy="640" r="6" fill="rgb(0, 59, 55)"></circle><text class="port-label" x="10" y="640.5" text-anchor="start" dominant-baseline="middle">rf_wd_MEM</text><circle cx="248.5" cy="640" r="6" fill="rgb(0, 59, 55)"></circle><text class="port-label" x="241" y="640.5" text-anchor="end" dominant-baseline="middle">rf_wd_WB</text></g><g transform="translate(-350 50)"><defs><linearGradient id="moduleGradient-mod-1" x1="0%" y1="0%" x2="70%" y2="100%"><stop offset="0%" stop-color="rgba(255, 229, 242, 0.95)"/><stop offset="100%" stop-color="rgba(255, 242, 248, 0.92)"/></linearGradient></defs><rect x="1.5" y="1.5" width="147" height="147" rx="12.5" ry="12.5" fill="url(#moduleGradient-mod-1)" stroke="#fe5dab" stroke-width="3"></rect><text class="module-name" x="75" y="75" text-anchor="middle" dominant-baseline="middle" font-size="24">PC</text><circle cx="1.5" cy="30" r="6" fill="rgb(127, 47, 86)"></circle><text class="port-label" x="10" y="30.5" text-anchor="start" dominant-baseline="middle">keep_pc</text><circle cx="1.5" cy="120" r="6" fill="rgb(127, 47, 86)"></circle><text class="port-label" x="10" y="120.5" text-anchor="start" dominant-baseline="middle">branch_op</text><circle cx="148.5" cy="30" r="6" fill="rgb(127, 47, 86)"></circle><text class="port-label" x="141" y="30.5" text-anchor="end" dominant-baseline="middle">pc4_if</text><path d="M 65 1.5 L 87 1.5 L 76 11.5 Z" fill="none" stroke="rgb(127, 47, 86)" stroke-width="3" stroke-linejoin="round"></path><circle cx="1.5" cy="97.5" r="6" fill="rgb(127, 47, 86)"></circle><text class="port-label" x="10" y="98" text-anchor="start" dominant-baseline="middle">braqnch_target</text><circle cx="148.5" cy="60" r="6" fill="rgb(127, 47, 86)"></circle><text class="port-label" x="141" y="60.5" text-anchor="end" dominant-baseline="middle">pc_if</text></g><g transform="translate(-350 402)"><defs><linearGradient id="moduleGradient-mod-14" x1="0%" y1="0%" x2="70%" y2="100%"><stop offset="0%" stop-color="rgba(223, 232, 242, 0.95)"/><stop offset="100%" stop-color="rgba(239, 244, 249, 0.92)"/></linearGradient></defs><rect x="1.5" y="1.5" width="147" height="87" rx="12.5" ry="12.5" fill="url(#moduleGradient-mod-14)" stroke="rgba(58, 114, 176, 0.8)" stroke-width="3"></rect><text class="module-name" x="75" y="45" text-anchor="middle" dominant-baseline="middle" font-size="24">IROM</text><circle cx="1.5" cy="72" r="6" fill="rgba(29, 57, 88, 0.9)"></circle><text class="port-label" x="10" y="72.5" text-anchor="start" dominant-baseline="middle">pc</text><circle cx="148.5" cy="18" r="6" fill="rgba(29, 57, 88, 0.9)"></circle><text class="port-label" x="141" y="18.5" text-anchor="end" dominant-baseline="middle">Instr</text></g><g transform="translate(454 696)"><defs><linearGradient id="moduleGradient-mod-20" x1="0%" y1="0%" x2="70%" y2="100%"><stop offset="0%" stop-color="rgba(246, 232, 237, 0.95)"/><stop offset="100%" stop-color="rgba(251, 243, 246, 0.92)"/></linearGradient></defs><path d="M 1.5 15 L 98.5 1.5 L 98.5 58.5 L 1.5 58.5 Z" fill="url(#moduleGradient-mod-20)" stroke="rgba(200, 110, 140, 0.8)" stroke-width="3" stroke-linejoin="round"></path><text class="module-name" x="50" y="30" text-anchor="middle" dominant-baseline="middle" font-size="14">Extender</text><circle cx="1.5" cy="36" r="6" fill="rgba(100, 55, 70, 0.9)"></circle><text class="port-label" x="11" y="36.5" text-anchor="start" dominant-baseline="middle"></text><circle cx="98.5" cy="30" r="6" fill="rgba(100, 55, 70, 0.9)"></circle><text class="port-label" x="93" y="30.5" text-anchor="end" dominant-baseline="middle"></text></g><g transform="translate(350 1)"><defs><linearGradient id="moduleGradient-mod-23" x1="0%" y1="0%" x2="70%" y2="100%"><stop offset="0%" stop-color="rgba(223, 232, 242, 0.95)"/><stop offset="100%" stop-color="rgba(239, 244, 249, 0.92)"/></linearGradient></defs><rect x="1.5" y="1.5" width="197" height="197" rx="12.5" ry="12.5" fill="url(#moduleGradient-mod-23)" stroke="rgba(58, 114, 176, 0.8)" stroke-width="3"></rect><text class="module-name" x="100" y="100" text-anchor="middle" dominant-baseline="middle" font-size="24">Decoder</text><circle cx="1.5" cy="60" r="6" fill="rgba(29, 57, 88, 0.9)"></circle><text class="port-label" x="10" y="60.5" text-anchor="start" dominant-baseline="middle">Instr_ID</text><circle cx="198.5" cy="140" r="6" fill="rgba(29, 57, 88, 0.9)"></circle><text class="port-label" x="191" y="140.5" text-anchor="end" dominant-baseline="middle">Control</text></g><g transform="translate(350 230)"><defs><linearGradient id="moduleGradient-registerf" x1="0%" y1="0%" x2="70%" y2="100%"><stop offset="0%" stop-color="rgba(217, 245, 218, 0.95)"/><stop offset="100%" stop-color="rgba(236, 250, 236, 0.92)"/></linearGradient></defs><rect x="1.5" y="1.5" width="197" height="297" rx="12.5" ry="12.5" fill="url(#moduleGradient-registerf)" stroke="#14c217" stroke-width="3"></rect><text class="module-name" x="100" y="150" text-anchor="middle" dominant-baseline="middle" font-size="24">RegisterF</text><path d="M 90 1.5 L 112 1.5 L 101 11.5 Z" fill="none" stroke="rgb(10, 97, 12)" stroke-width="3" stroke-linejoin="round"></path><circle cx="1.5" cy="60" r="6" fill="rgb(10, 97, 12)"></circle><text class="port-label" x="10" y="60.5" text-anchor="start" dominant-baseline="middle">rR1</text><circle cx="1.5" cy="120" r="6" fill="rgb(10, 97, 12)"></circle><text class="port-label" x="10" y="120.5" text-anchor="start" dominant-baseline="middle">rR2</text><circle cx="1.5" cy="180" r="6" fill="rgb(10, 97, 12)"></circle><text class="port-label" x="10" y="180.5" text-anchor="start" dominant-baseline="middle">wD1</text><circle cx="1.5" cy="240" r="6" fill="rgb(10, 97, 12)"></circle><text class="port-label" x="10" y="240.5" text-anchor="start" dominant-baseline="middle">wD2_MUX</text><circle cx="80" cy="298.5" r="6" fill="rgb(10, 97, 12)"></circle><text class="port-label" x="80.5" y="284" text-anchor="middle" dominant-baseline="middle">we1</text><circle cx="120" cy="298.5" r="6" fill="rgb(10, 97, 12)"></circle><text class="port-label" x="120.5" y="284" text-anchor="middle" dominant-baseline="middle">we2</text><circle cx="198.5" cy="120" r="6" fill="rgb(10, 97, 12)"></circle><text class="port-label" x="191" y="120.5" text-anchor="end" dominant-baseline="middle">rD1</text><circle cx="198.5" cy="180" r="6" fill="rgb(10, 97, 12)"></circle><text class="port-label" x="191" y="180.5" text-anchor="end" dominant-baseline="middle">rD2</text></g><g transform="translate(693 580)"><defs><linearGradient id="moduleGradient-mod-32" x1="0%" y1="0%" x2="70%" y2="100%"><stop offset="0%" stop-color="rgba(223, 232, 242, 0.95)"/><stop offset="100%" stop-color="rgba(239, 244, 249, 0.92)"/></linearGradient></defs><rect x="1.5" y="1.5" width="57" height="117" rx="12.5" ry="12.5" fill="url(#moduleGradient-mod-32)" stroke="rgba(58, 114, 176, 0.8)" stroke-width="3"></rect><text class="module-name" x="30" y="60" text-anchor="middle" dominant-baseline="middle" font-size="32">+</text><circle cx="1.5" cy="36" r="6" fill="rgba(29, 57, 88, 0.9)"></circle><text class="port-label" x="10" y="36.5" text-anchor="start" dominant-baseline="middle"></text><circle cx="1.5" cy="84" r="6" fill="rgba(29, 57, 88, 0.9)"></circle><text class="port-label" x="10" y="84.5" text-anchor="start" dominant-baseline="middle"></text><circle cx="58.5" cy="60" r="6" fill="rgba(29, 57, 88, 0.9)"></circle><text class="port-label" x="51" y="60.5" text-anchor="end" dominant-baseline="middle"></text></g><g transform="translate(1199 -200)"><defs><linearGradient id="moduleGradient-mod-54" x1="0%" y1="0%" x2="70%" y2="100%"><stop offset="0%" stop-color="rgba(235, 214, 255, 0.95)"/><stop offset="100%" stop-color="rgba(245, 235, 255, 0.92)"/></linearGradient></defs><rect x="1.5" y="1.5" width="997" height="97" rx="12.5" ry="12.5" fill="url(#moduleGradient-mod-54)" stroke="#8000ff" stroke-width="3"></rect><text class="module-name" x="500" y="50" text-anchor="middle" dominant-baseline="middle" font-size="24">MUX (4  Pipeline Stage)</text><circle cx="1.5" cy="30" r="6" fill="rgb(64, 0, 128)"></circle><text class="port-label" x="10" y="30.5" text-anchor="start" dominant-baseline="middle">src1</text><circle cx="1.5" cy="70" r="6" fill="rgb(64, 0, 128)"></circle><text class="port-label" x="10" y="70.5" text-anchor="start" dominant-baseline="middle">src2</text><circle cx="998.5" cy="50" r="6" fill="rgb(64, 0, 128)"></circle><text class="port-label" x="991" y="50.5" text-anchor="end" dominant-baseline="middle">Out</text><path d="M 490 1.5 L 512 1.5 L 501 11.5 Z" fill="none" stroke="rgb(64, 0, 128)" stroke-width="3" stroke-linejoin="round"></path><circle cx="100" cy="1.5" r="6" fill="rgb(64, 0, 128)"></circle><text class="port-label" x="100.5" y="14" text-anchor="middle" dominant-baseline="middle">mul_rf_we_o</text><circle cx="500" cy="98.5" r="6" fill="rgb(64, 0, 128)"></circle><text class="port-label" x="500.5" y="84" text-anchor="middle" dominant-baseline="middle">mul_control_i</text><circle cx="100" cy="98.5" r="6" fill="rgb(64, 0, 128)"></circle><text class="port-label" x="100.5" y="84" text-anchor="middle" dominant-baseline="middle">mul_op_i</text></g><g transform="translate(1201 953)"><defs><linearGradient id="moduleGradient-mod-59" x1="0%" y1="0%" x2="70%" y2="100%"><stop offset="0%" stop-color="rgba(223, 232, 242, 0.95)"/><stop offset="100%" stop-color="rgba(239, 244, 249, 0.92)"/></linearGradient></defs><rect x="1.5" y="1.5" width="997" height="117" rx="12.5" ry="12.5" fill="url(#moduleGradient-mod-59)" stroke="rgba(58, 114, 176, 0.8)" stroke-width="3"></rect><text class="module-name" x="500" y="60" text-anchor="middle" dominant-baseline="middle" font-size="24">HazardUnit</text><circle cx="1.5" cy="36" r="6" fill="rgba(29, 57, 88, 0.9)"></circle><text class="port-label" x="10" y="36.5" text-anchor="start" dominant-baseline="middle">keep_pc</text><circle cx="998.5" cy="48" r="6" fill="rgba(29, 57, 88, 0.9)"></circle><text class="port-label" x="991" y="48.5" text-anchor="end" dominant-baseline="middle">rf_wd_WB</text><circle cx="670" cy="1.5" r="6" fill="rgba(29, 57, 88, 0.9)"></circle><text class="port-label" x="670.5" y="14" text-anchor="middle" dominant-baseline="middle">mul_control_o</text><circle cx="552.9999999999999" cy="1.5" r="6" fill="rgba(29, 57, 88, 0.9)"></circle><text class="port-label" x="553.4999999999999" y="14" text-anchor="middle" dominant-baseline="middle">take_branch</text><circle cx="80" cy="1.5" r="6" fill="rgba(29, 57, 88, 0.9)"></circle><text class="port-label" x="80.5" y="14" text-anchor="middle" dominant-baseline="middle">flush_IF_ID</text><circle cx="200" cy="1.5" r="6" fill="rgba(29, 57, 88, 0.9)"></circle><text class="port-label" x="200.5" y="14" text-anchor="middle" dominant-baseline="middle">stall_IF_ID</text><circle cx="320" cy="1.5" r="6" fill="rgba(29, 57, 88, 0.9)"></circle><text class="port-label" x="320.5" y="14" text-anchor="middle" dominant-baseline="middle">flush_ID_EX</text><circle cx="440" cy="1.5" r="6" fill="rgba(29, 57, 88, 0.9)"></circle><text class="port-label" x="440.5" y="14" text-anchor="middle" dominant-baseline="middle">fwd_out</text><circle cx="1.5" cy="72" r="6" fill="rgba(29, 57, 88, 0.9)"></circle><text class="port-label" x="10" y="72.5" text-anchor="start" dominant-baseline="middle">rf_we_ex</text><circle cx="1.5" cy="96" r="6" fill="rgba(29, 57, 88, 0.9)"></circle><text class="port-label" x="10" y="96.5" text-anchor="start" dominant-baseline="middle">wR_EX</text><circle cx="998.5" cy="72" r="6" fill="rgba(29, 57, 88, 0.9)"></circle><text class="port-label" x="991" y="72.5" text-anchor="end" dominant-baseline="middle">wR_WB</text><circle cx="998.5" cy="96" r="6" fill="rgba(29, 57, 88, 0.9)"></circle><text class="port-label" x="991" y="96.5" text-anchor="end" dominant-baseline="middle">rf_we_WB</text><circle cx="770" cy="1.5" r="6" fill="rgba(29, 57, 88, 0.9)"></circle><text class="port-label" x="770.5" y="14" text-anchor="middle" dominant-baseline="middle">rf_wd_MEM</text><circle cx="950" cy="1.5" r="6" fill="rgba(29, 57, 88, 0.9)"></circle><text class="port-label" x="950.5" y="14" text-anchor="middle" dominant-baseline="middle">rf_we_MEM</text><circle cx="860" cy="1.5" r="6" fill="rgba(29, 57, 88, 0.9)"></circle><text class="port-label" x="860.5" y="14" text-anchor="middle" dominant-baseline="middle">wR_MEM</text><circle cx="100" cy="118.5" r="6" fill="rgba(29, 57, 88, 0.9)"></circle><text class="port-label" x="100.5" y="104" text-anchor="middle" dominant-baseline="middle">rR1_ID</text><circle cx="200" cy="118.5" r="6" fill="rgba(29, 57, 88, 0.9)"></circle><text class="port-label" x="200.5" y="104" text-anchor="middle" dominant-baseline="middle">rR2_ID</text></g><g transform="translate(1284 291)"><defs><linearGradient id="moduleGradient-mod-69" x1="0%" y1="0%" x2="70%" y2="100%"><stop offset="0%" stop-color="rgba(253, 245, 227, 0.95)"/><stop offset="100%" stop-color="rgba(254, 250, 241, 0.92)"/></linearGradient></defs><rect x="1.5" y="1.5" width="167" height="87" rx="12.5" ry="12.5" fill="url(#moduleGradient-mod-69)" stroke="rgba(242, 193, 78, 0.8)" stroke-width="3"></rect><text class="module-name" x="85" y="45" text-anchor="middle" dominant-baseline="middle" font-size="24">ALU 1</text><circle cx="1.5" cy="22.5" r="6" fill="rgba(121, 97, 39, 0.9)"></circle><text class="port-label" x="10" y="23" text-anchor="start" dominant-baseline="middle">Src1</text><circle cx="1.5" cy="62.99999999999999" r="6" fill="rgba(121, 97, 39, 0.9)"></circle><text class="port-label" x="10" y="63.49999999999999" text-anchor="start" dominant-baseline="middle">Src2</text><circle cx="85" cy="1.5" r="6" fill="rgba(121, 97, 39, 0.9)"></circle><text class="port-label" x="85.5" y="14" text-anchor="middle" dominant-baseline="middle">ALUOp</text><circle cx="168.5" cy="45" r="6" fill="rgba(121, 97, 39, 0.9)"></circle><text class="port-label" x="161" y="45.5" text-anchor="end" dominant-baseline="middle">Out</text></g><g transform="translate(1187 168)"><defs><linearGradient id="moduleGradient-mod-74" x1="0%" y1="0%" x2="70%" y2="100%"><stop offset="0%" stop-color="rgba(238, 231, 247, 0.95)"/><stop offset="100%" stop-color="rgba(247, 243, 251, 0.92)"/></linearGradient></defs><path d="M 1.5 1.5 L 58.5 34.64101615137754 L 58.5 145.35898384862247 L 1.5 178.5 Z" fill="url(#moduleGradient-mod-74)" stroke="rgba(150, 108, 203, 0.6)" stroke-width="3" stroke-linejoin="round"></path><text class="module-name" x="30" y="90" text-anchor="middle" dominant-baseline="middle" font-size="14">Src2</text><circle cx="1.5" cy="60" r="6" fill="rgba(75, 54, 102, 0.8)"></circle><text class="port-label" x="11" y="60.5" text-anchor="start" dominant-baseline="middle"></text><circle cx="1.5" cy="120" r="6" fill="rgba(75, 54, 102, 0.8)"></circle><text class="port-label" x="11" y="120.5" text-anchor="start" dominant-baseline="middle"></text><circle cx="32.85" cy="19.72755888325765" r="6" fill="rgba(75, 54, 102, 0.8)"></circle><text class="port-label" x="34.35" y="35.22755888325765" text-anchor="middle" dominant-baseline="middle"></text><circle cx="58.5" cy="90" r="6" fill="rgba(75, 54, 102, 0.8)"></circle><text class="port-label" x="53" y="90.5" text-anchor="end" dominant-baseline="middle"></text></g><g transform="translate(1573 169)"><defs><linearGradient id="moduleGradient-mod-101" x1="0%" y1="0%" x2="70%" y2="100%"><stop offset="0%" stop-color="rgba(255, 229, 242, 0.95)"/><stop offset="100%" stop-color="rgba(255, 242, 248, 0.92)"/></linearGradient></defs><rect x="1.5" y="1.5" width="147" height="147" rx="12.5" ry="12.5" fill="url(#moduleGradient-mod-101)" stroke="#fe5dab" stroke-width="3"></rect><text class="module-name" x="75" y="75" text-anchor="middle" dominant-baseline="middle" font-size="18">NextPC</text><circle cx="1.5" cy="45" r="6" fill="rgb(127, 47, 86)"></circle><text class="port-label" x="10" y="45.5" text-anchor="start" dominant-baseline="middle">Control</text><circle cx="1.5" cy="75" r="6" fill="rgb(127, 47, 86)"></circle><text class="port-label" x="10" y="75.5" text-anchor="start" dominant-baseline="middle">alu</text><circle cx="148.5" cy="45" r="6" fill="rgb(127, 47, 86)"></circle><text class="port-label" x="141" y="45.5" text-anchor="end" dominant-baseline="middle">NextPC</text><circle cx="148.5" cy="105" r="6" fill="rgb(127, 47, 86)"></circle><text class="port-label" x="141" y="105.5" text-anchor="end" dominant-baseline="middle">take_branch</text><circle cx="1.5" cy="124.5" r="6" fill="rgb(127, 47, 86)"></circle><text class="port-label" x="10" y="125" text-anchor="start" dominant-baseline="middle">b_target</text></g><g transform="translate(1487 365)"><defs><linearGradient id="moduleGradient-mod-107" x1="0%" y1="0%" x2="70%" y2="100%"><stop offset="0%" stop-color="rgba(255, 227, 214, 0.95)"/><stop offset="100%" stop-color="rgba(255, 241, 235, 0.92)"/></linearGradient></defs><path d="M 1.5 1.5 L 58.5 34.64101615137754 L 58.5 145.35898384862247 L 1.5 178.5 Z" fill="url(#moduleGradient-mod-107)" stroke="#ff4d00" stroke-width="3" stroke-linejoin="round"></path><text class="module-name" x="30" y="90" text-anchor="middle" dominant-baseline="middle" font-size="14">WB1</text><circle cx="1.5" cy="45" r="6" fill="rgb(128, 39, 0)"></circle><text class="port-label" x="11" y="45.5" text-anchor="start" dominant-baseline="middle"></text><circle cx="1.5" cy="90" r="6" fill="rgb(128, 39, 0)"></circle><text class="port-label" x="11" y="90.5" text-anchor="start" dominant-baseline="middle"></text><circle cx="32.85" cy="19.72755888325765" r="6" fill="rgb(128, 39, 0)"></circle><text class="port-label" x="34.35" y="35.22755888325765" text-anchor="middle" dominant-baseline="middle"></text><circle cx="58.5" cy="90" r="6" fill="rgb(128, 39, 0)"></circle><text class="port-label" x="53" y="90.5" text-anchor="end" dominant-baseline="middle"></text><circle cx="1.5" cy="135" r="6" fill="rgb(128, 39, 0)"></circle><text class="port-label" x="11" y="135.5" text-anchor="start" dominant-baseline="middle"></text></g><g transform="translate(2226 490)"><defs><linearGradient id="moduleGradient-mod-164" x1="0%" y1="0%" x2="70%" y2="100%"><stop offset="0%" stop-color="rgba(250, 234, 229, 0.95)"/><stop offset="100%" stop-color="rgba(253, 244, 242, 0.92)"/></linearGradient></defs><rect x="1.5" y="1.5" width="297" height="197" rx="12.5" ry="12.5" fill="url(#moduleGradient-mod-164)" stroke="rgba(224, 122, 95, 0.8)" stroke-width="3"></rect><text class="module-name" x="150" y="100" text-anchor="middle" dominant-baseline="middle" font-size="24">DRAM</text><circle cx="1.5" cy="100" r="6" fill="rgba(112, 61, 48, 0.9)"></circle><text class="port-label" x="10" y="100.5" text-anchor="start" dominant-baseline="middle">a</text><circle cx="298.5" cy="100" r="6" fill="rgba(112, 61, 48, 0.9)"></circle><text class="port-label" x="291" y="100.5" text-anchor="end" dominant-baseline="middle">spo</text><path d="M 151 188.5 L 162 198.5 L 140 198.5 Z" fill="none" stroke="rgba(112, 61, 48, 0.9)" stroke-width="3" stroke-linejoin="round"></path><circle cx="90" cy="1.5" r="6" fill="rgba(112, 61, 48, 0.9)"></circle><text class="port-label" x="90.5" y="14" text-anchor="middle" dominant-baseline="middle">din</text><circle cx="210" cy="1.5" r="6" fill="rgba(112, 61, 48, 0.9)"></circle><text class="port-label" x="210.5" y="14" text-anchor="middle" dominant-baseline="middle">we</text></g><g transform="translate(2226 180)"><defs><linearGradient id="moduleGradient-mod-169" x1="0%" y1="0%" x2="70%" y2="100%"><stop offset="0%" stop-color="rgba(218, 249, 251, 0.95)"/><stop offset="100%" stop-color="rgba(236, 252, 253, 0.92)"/></linearGradient></defs><rect x="1.5" y="1.5" width="297" height="197" rx="12.5" ry="12.5" fill="url(#moduleGradient-mod-169)" stroke="#15d7e5" stroke-width="3"></rect><text class="module-name" x="150" y="100" text-anchor="middle" dominant-baseline="middle" font-size="18">StoreUnit</text><circle cx="1.5" cy="60" r="6" fill="rgb(11, 108, 115)"></circle><text class="port-label" x="10" y="60.5" text-anchor="start" dominant-baseline="middle">store_data_i</text><circle cx="1.5" cy="140" r="6" fill="rgb(11, 108, 115)"></circle><text class="port-label" x="10" y="140.5" text-anchor="start" dominant-baseline="middle">addr</text><circle cx="90" cy="1.5" r="6" fill="rgb(11, 108, 115)"></circle><text class="port-label" x="90.5" y="14" text-anchor="middle" dominant-baseline="middle">dram_we</text><circle cx="210" cy="1.5" r="6" fill="rgb(11, 108, 115)"></circle><text class="port-label" x="210.5" y="14" text-anchor="middle" dominant-baseline="middle">sl_type</text><circle cx="90" cy="198.5" r="6" fill="rgb(11, 108, 115)"></circle><text class="port-label" x="90.5" y="184" text-anchor="middle" dominant-baseline="middle">store_data_o</text><circle cx="210" cy="198.5" r="6" fill="rgb(11, 108, 115)"></circle><text class="port-label" x="210.5" y="184" text-anchor="middle" dominant-baseline="middle">wstrb_o</text></g><g transform="translate(3577 638)"><defs><linearGradient id="moduleGradient-mod-192" x1="0%" y1="0%" x2="70%" y2="100%"><stop offset="0%" stop-color="rgba(238, 231, 247, 0.95)"/><stop offset="100%" stop-color="rgba(247, 243, 251, 0.92)"/></linearGradient></defs><path d="M 1.5 1.5 L 58.5 34.64101615137754 L 58.5 145.35898384862247 L 1.5 178.5 Z" fill="url(#moduleGradient-mod-192)" stroke="rgba(150, 108, 203, 0.6)" stroke-width="3" stroke-linejoin="round"></path><text class="module-name" x="30" y="90" text-anchor="middle" dominant-baseline="middle" font-size="14">fwd</text><circle cx="1.5" cy="45" r="6" fill="rgba(75, 54, 102, 0.8)"></circle><text class="port-label" x="11" y="45.5" text-anchor="start" dominant-baseline="middle"></text><circle cx="1.5" cy="90" r="6" fill="rgba(75, 54, 102, 0.8)"></circle><text class="port-label" x="11" y="90.5" text-anchor="start" dominant-baseline="middle"></text><circle cx="32.85" cy="19.72755888325765" r="6" fill="rgba(75, 54, 102, 0.8)"></circle><text class="port-label" x="34.35" y="35.22755888325765" text-anchor="middle" dominant-baseline="middle"></text><circle cx="58.5" cy="90" r="6" fill="rgba(75, 54, 102, 0.8)"></circle><text class="port-label" x="53" y="90.5" text-anchor="end" dominant-baseline="middle"></text><circle cx="1.5" cy="135" r="6" fill="rgba(75, 54, 102, 0.8)"></circle><text class="port-label" x="11" y="135.5" text-anchor="start" dominant-baseline="middle"></text></g><g transform="translate(3358 514)"><defs><linearGradient id="moduleGradient-mod-198" x1="0%" y1="0%" x2="70%" y2="100%"><stop offset="0%" stop-color="rgba(255, 227, 214, 0.95)"/><stop offset="100%" stop-color="rgba(255, 241, 235, 0.92)"/></linearGradient></defs><path d="M 1.5 1.5 L 58.5 34.64101615137754 L 58.5 145.35898384862247 L 1.5 178.5 Z" fill="url(#moduleGradient-mod-198)" stroke="#ff4d00" stroke-width="3" stroke-linejoin="round"></path><text class="module-name" x="30" y="90" text-anchor="middle" dominant-baseline="middle" font-size="14">WB2</text><circle cx="1.5" cy="54" r="6" fill="rgb(128, 39, 0)"></circle><text class="port-label" x="11" y="54.5" text-anchor="start" dominant-baseline="middle"></text><circle cx="1.5" cy="125.99999999999999" r="6" fill="rgb(128, 39, 0)"></circle><text class="port-label" x="11" y="126.49999999999999" text-anchor="start" dominant-baseline="middle"></text><circle cx="32.85" cy="19.72755888325765" r="6" fill="rgb(128, 39, 0)"></circle><text class="port-label" x="34.35" y="35.22755888325765" text-anchor="middle" dominant-baseline="middle"></text><circle cx="58.5" cy="90" r="6" fill="rgb(128, 39, 0)"></circle><text class="port-label" x="53" y="90.5" text-anchor="end" dominant-baseline="middle"></text></g><g transform="translate(2996 180)"><defs><linearGradient id="moduleGradient-mod-209" x1="0%" y1="0%" x2="70%" y2="100%"><stop offset="0%" stop-color="rgba(218, 249, 251, 0.95)"/><stop offset="100%" stop-color="rgba(236, 252, 253, 0.92)"/></linearGradient></defs><rect x="1.5" y="1.5" width="297" height="197" rx="12.5" ry="12.5" fill="url(#moduleGradient-mod-209)" stroke="#15d7e5" stroke-width="3"></rect><text class="module-name" x="150" y="100" text-anchor="middle" dominant-baseline="middle" font-size="18">LoadUnit</text><circle cx="1.5" cy="60" r="6" fill="rgb(11, 108, 115)"></circle><text class="port-label" x="10" y="60.5" text-anchor="start" dominant-baseline="middle">load_data_i</text><circle cx="1.5" cy="140" r="6" fill="rgb(11, 108, 115)"></circle><text class="port-label" x="10" y="140.5" text-anchor="start" dominant-baseline="middle">addr</text><circle cx="150" cy="1.5" r="6" fill="rgb(11, 108, 115)"></circle><text class="port-label" x="150.5" y="14" text-anchor="middle" dominant-baseline="middle">sl_type</text><circle cx="298.5" cy="100" r="6" fill="rgb(11, 108, 115)"></circle><text class="port-label" x="291" y="100.5" text-anchor="end" dominant-baseline="middle">load_data_o</text></g></g></svg>